<svg height="597" viewBox="0 0 597 597" width="597" xmlns="http://www.w3.org/2000/svg"><g fill="none" fill-rule="evenodd"><path d="m578.933333 325.106667c-20.577777-5.862223-40.177777-14.084445-58.533333-24.222223-5.2-2.888888-10.222222-5.866666-15.2-9.062222-21.066667-13.422222-40.222222-29.6-56.928889-47.955555-2.937778-3.204445-5.782222-6.537778-8.537778-9.822223-1.866666-2.222222-3.644444-4.444444-5.377777-6.666666l-.577778-.76c-1.866667-2.444445-3.777778-4.844445-5.511111-7.373334-1.288889-1.693333-2.533334-3.471111-3.688889-5.2-4.222222-6.048888-8.222222-12.311111-11.911111-18.715555 7.777777-9.555556 14.888889-19.595556 21.422222-30.084445 3.955555 3.555556 8 6.977778 12.128889 10.222223 1.56 1.24 3.071111 2.395555 4.626666 3.6 3.022223 2.351111 6.177778 4.662222 9.333334 6.844444 1.022222.755556 2.044444 1.466667 3.066666 2.173333l.933334.622223c4.933333 3.382222 10 6.622222 15.2 9.693333 7.333333 4.355556 14.844444 8.444444 22.488889 12.173333 6.133333 2.977778 12.311111 5.693334 18.622222 8.266667 16.755555 6.755556 34.311111 12.044444 52.444444 15.688889 4.755556 20.537778 7.288889 41.866667 7.288889 63.822222 0 9.026667-.444444 17.96-1.288889 26.755556m-28.222222 98.711111c-24.177778-8.528889-46.884444-20.266667-67.555555-34.711111-4.488889-3.106667-8.888889-6.4-13.2-9.822223-.755556-.528888-1.511112-1.151111-2.222223-1.773333-8.977777-7.155555-17.555555-14.933333-25.555555-23.248889-8.711111-8.933333-16.893334-18.488889-24.266667-28.528889-5.155555-6.893333-9.955555-14-14.444444-21.382222-4.977778-8.084444-9.555556-16.444444-13.688889-25.106667-2.844445-5.911111-5.466667-12.004444-7.911111-18.182222-3.288889-8.266666-6.133334-16.706666-8.622223-25.328889 9.955556-8.404444 19.377778-17.511111 28.088889-27.155555 3.422223 5.64 7.066667 11.151111 10.844445 16.528889 2.8 3.955555 5.644444 7.871111 8.622222 11.688889.4.533333.844444 1.111111 1.288889 1.693333 2.933333 3.728889 6 7.422222 9.155555 11.022222.577778.666667 10.888889 11.995556 15.733334 16.795556 16.488889 16.271111 34.888889 30.666666 54.755555 42.76 4.888889 2.973333 9.866667 5.822222 14.888889 8.484444 18.977778 10.137778 39.155556 18.271111 60.266667 24.093333-4.533333 29.106667-13.466667 56.706667-26.177778 82.173334m-25.777778 41.955555c-16.355555-17.155555-30.577777-36.311111-42.222222-57.155555 18.711111 12.137778 38.844445 22.222222 60.133333 29.915555-5.466666 9.422223-11.422222 18.528889-17.911111 27.24m-48.577777 50.933334c-17.866667-23.017778-32.266667-48.888889-42.355556-76.795556-2-5.466667-3.822222-10.982222-5.422222-16.577778-6.711111-22.888889-10.577778-46.977777-11.2-71.866666 11.111111 13.106666 23.422222 25.2 36.666666 36.177777 1.111112 2.622223 2.266667 5.2 3.422223 7.728889 2.488889 5.426667 5.111111 10.715556 7.911111 15.955556 13.244444 24.8 29.866666 47.511111 49.288889 67.511111-11.511111 13.826667-24.355556 26.533333-38.311111 37.866667m-44.044445 29.56c-23.688889-20.355556-42.76-45.96-55.422222-74.977778 15.2-5.693333 29.644444-12.937778 43.155555-21.644445 10.577778 27.906667 25.2 53.866667 43.244445 77.106667-9.866667 7.155556-20.177778 13.693333-30.977778 19.515556m-133.955555 33.911111c-42.177778 0-82.177778-9.293334-118.133334-25.96 23.6-21.511111 42.577778-48.04 55.333334-77.777778 19.955555 5.822222 41.022222 8.933333 62.8 8.933333 21.777777 0 42.844444-3.111111 62.8-8.933333 12.755555 29.737778 31.733333 56.266667 55.333333 77.777778-35.955556 16.666666-75.955556 25.96-118.133333 25.96m-133.955556-33.911111c-24.488889-13.288889-46.755556-30.048889-66.1777778-49.688889 18.9333338-21.204445 34.8888888-45.16 47.1555558-71.115556 21.377778 19.782222 46.622222 35.466667 74.444444 45.826667-12.666666 29.017778-31.733333 54.622222-55.422222 74.977778m-121.1555556-128.133334c19.4222223-18.977777 36.2666667-40.622222 49.9555556-64.315555 3.5555556-6.088889 6.844444-12.351111 9.911111-18.711111 5.555556-11.328889 10.4-23.111111 14.444445-35.195556 12.933333 2.795556 26.177777 4.711111 39.688888 5.773333-.8 31.733334-6.888888 62.133334-17.377777 90.444445-2.133334 5.737778-4.444445 11.377778-6.933334 16.937778-11.688889 26.177777-27.244444 50.217777-45.9999997 71.466666-17.5111111-19.871111-32.2666666-42.182222-43.6888889-66.4m-11.8666666-29.293333c-9.6444445-28.444444-14.8888889-58.888889-14.8888889-90.488889 0-13.066667.8888889-25.951111 2.6666667-38.533333l.0888888-.662222c3.5111112 2.262222 7.0666667 4.444444 10.6666667 6.528888 14.0888889 8.311112 28.8888889 15.426667 44.3111111 21.288889 4 1.56 8.0888889 3.026667 12.2222222 4.355556 1.7333334.626667 3.5111112 1.2 5.2888889 1.737778 3.2444445 1.017777 6.4444445 1.951111 9.7333337 2.884444-1.7777781 5.288889-3.7333337 10.582222-5.866667 15.693333-3.1111111 7.688889-6.6222222 15.2-10.4 22.44-12.8888889 25.022223-29.4666667 47.866667-48.9777778 67.782223-1.7333333-4.266667-3.3333333-8.622223-4.8444444-13.026667m383.1111112 44.8c-13.511111 9.026667-28.133333 16.537778-43.644445 22.271111-5.155555 1.906667-10.355555 3.64-15.644444 5.111111-18.088889 5.106667-37.155556 7.866667-56.844444 7.866667-19.688889 0-38.755556-2.76-56.844445-7.866667-5.288889-1.471111-10.488889-3.204444-15.644444-5.111111-27.733334-10.266667-52.711111-26.222222-73.466667-46.488889 12.888889-31.955555 20.355556-66.626666 21.288889-102.933333 2.266667.044444 4.533333.088889 6.8.088889 13.333333 0 26.444444-.893334 39.288889-2.622222 5.644444-.715556 11.244444-1.604445 16.755555-2.666667 45.422223-8.671111 87.2-27.648889 122.844445-54.448889 3.377778 10.804444 7.333333 21.244444 11.866666 31.471111 2.755556 6.262222 5.733334 12.44 8.977778 18.484445 6.177778 11.782222 13.2 23.115555 20.888889 33.915555-.222222 4.488889-.311111 9.022222-.311111 13.506667 0 31.111111 4.755556 61.204444 13.688889 89.422222m-371.7333334-254.128889c12.4444444 6.528889 25.3777777 12.173333 38.8 16.884445 5.1555555 1.866666 10.3555555 3.555555 15.6888888 5.071111 6.3111116 1.817777 12.7555556 3.462222 19.2888886 4.888889 5.377778 1.24 10.888889 2.266666 16.444445 3.155555 2.044444.311111 20.711111 3.422222 28.311111 3.155556 3.244444-.137778 6.444444.355555 9.733333.44 3.111111.093333 6.311111.177777 9.466667.177777 61.155555 0 118.044444-18.484444 165.422222-50.177777 5.6-3.733334 11.111111-7.728889 16.488889-11.866667 3.244444-2.484444 6.4-5.022222 9.511111-7.64 4.622222-3.911111 9.155556-7.915556 13.555556-12.093333 3.066666-2.888889 6.088889-5.862223 8.977777-8.888889 3.911112-4 7.733334-8.133334 11.377778-12.351111 5.555556-6.36 10.8-12.9777781 15.777778-19.8222226 3.244444-4.4044444 6.4-8.9377777 9.333333-13.56 4.311111-6.6177777 8.355556-13.3733333 12.088889-20.3511111 4.622222 2.7511111 9.155556 5.64 13.555556 8.6622223-1.866667 9.16-4.222222 18.0888888-6.933334 26.8933333-1.777777 5.7288889-3.777777 11.3733331-5.955555 16.9777781-3.866667 10.217777-8.4 20.177777-13.466667 29.733333-2.622222 5.106667-5.422222 10.088889-8.4 14.928889-5.422222 8.937778-11.328889 17.6-17.644444 25.822222-3.644445 4.76-7.466667 9.426667-11.377778 13.871111-7.511111 8.622222-15.555556 16.795556-24.044444 24.395556-4.622223 4.177778-9.333334 8.133333-14.177778 11.955555-35.777778 28.182223-78.488889 47.871111-125.155556 56.048889-5.688889 1.022222-11.422222 1.866667-17.244444 2.488889-10.4 1.2-20.977778 1.773333-31.688889 1.773333-2.266667 0-4.533333-.044444-6.8-.084444-5.511111-.088889-11.022222-.4-16.488889-.844444-11.822222-.982223-23.422222-2.666667-34.8-5.111112-5.422222-1.111111-10.755556-2.4-16.044444-3.866666-5.644445-1.515556-11.2444449-3.244445-16.755556-5.111111-5.6888889-1.96-11.3333333-4.088889-16.8444444-6.404445-17.8666667-7.373333-34.7111112-16.528889-50.4888889-27.284444 4.4888889-21.648889 11.4222222-42.311111 20.4888889-61.866667m8.4-16.488889c10.0444444-18.311111 22.0888888-35.333333 35.7777777-50.888889 2.9777778-3.422222 6.0888889-6.76 9.2888889-10l.9777778.306667c1.3777778.404444 2.7555556.804444 4.133333 1.16 5.066667 1.417778 10.133334 2.666667 15.288889 3.777778 4.222222.933333 8.488889 1.817778 12.8 2.533333 6.577778 1.151111 13.244445 2.084445 19.911111 2.755556 10.266667 1.062222 20.666667 1.644444 31.155556 1.644444 65.022222 0 125.244444-20.9377777 174.311111-56.4044443.533333-.3555556 1.066667-.7555556 1.6-1.1555556.622222-.4444444 12.355556-9.5111111 13.511111-10.4844444.266667-.2266667 13.333333-11.6044445 17.333333-15.4266667 1.555556.4888889 29.644445 11.4222222 41.422223 17.6488889-3.555556 6.5777778-7.333334 12.9777778-11.377778 19.1955555-2.977778 4.6266667-6.088889 9.16-9.377778 13.5555556-3.777778 5.2-7.733333 10.2266667-11.866667 15.1155556-3.644444 4.3555554-7.422222 8.5733334-11.333333 12.7111114-1.288889 1.288889-2.577778 2.617777-3.822222 3.906666-4.488889 4.533334-9.115556 8.937778-13.911111 13.115556-1.022222.973333-2.088889 1.866667-3.2 2.795555-5.644445 4.893334-11.511111 9.515556-17.555556 13.871112-46.533333 34-103.822222 54.04-165.733333 54.04-8.355556 0-16.666667-.355556-24.844445-1.111112-3.644444-.311111-7.2-.666666-10.8-1.111111-2.577777-.355555-5.155555-.706666-7.733333-1.151111-1.422222-.177778-2.888889-.4-4.355555-.715555-5.6-.928889-11.111112-2.044445-16.622223-3.333334-4.622222-1.062222-9.2-2.262222-13.688889-3.6-5.3333329-1.506666-10.5333329-3.195555-15.7333329-5.022222-12.6222222-4.44-24.8-9.773333-36.5333333-15.951111.3555555-.582222.6666666-1.2.9777778-1.777778m247.2000004-146.5377776c15.511111 0 30.711111 1.2444445 45.511111 3.6933334 5.333333.84 10.666666 1.8666666 15.955555 3.0622222.755556.1822222 1.466667.3111111 2.177778.4888889 2.311111.5377778 4.577778 1.0711111 6.888889 1.6933333-1.644445 1.4622222-3.244445 2.9288889-4.933333 4.3511111-1.688889 1.4266667-3.377778 2.8444445-5.066667 4.2222223-2.533333 2.0444444-20.133333 15.2-26.133333 19.0266666-43.911112 28.3555556-96.222223 44.7955556-152.266667 44.7955556-4.844445 0-9.644445-.1333334-14.444445-.3511111-7.644444-.4044445-15.111111-1.1111111-22.533333-2.0933334-11.422222-1.5066666-22.622222-3.6888889-33.511111-6.4844444 49.911111-45.0222222 116-72.4044445 188.355556-72.4044445m164.4 88.4444446c3.244444-9.5066668 6.088888-19.2444446 8.355555-29.1555557 6.666667 5.2044445 13.111111 10.6666667 19.244445 16.4488889 4.088888 3.7288889 8.044444 7.6444445 11.866666 11.6844448 2.888889 2.977777 5.688889 6.088889 8.444445 9.244444 3.6 4.088889 7.111111 8.355556 10.444444 12.711111 9.111111 11.644445 17.288889 24.088889 24.444445 37.16 2.844444 5.151111 5.555555 10.488889 8.088888 15.866667 5.688889 12.128889 10.533334 24.751111 14.488889 37.777778-18.133333-4.226667-35.6-10.182223-52.222222-17.688889-5.866667-2.666667-11.6-5.515556-17.2-8.533334-1.155555-.626666-2.311111-1.2-3.422222-1.866666-5.022222-2.804445-9.911111-5.688889-14.711111-8.804445-2.311111-1.462222-4.622222-2.977777-6.888889-4.528889-2.666667-1.782222-5.244445-3.6-7.777778-5.511111-1.911111-1.333333-3.733333-2.711111-5.6-4.137777-2.711111-2.084445-5.333333-4.217778-7.955555-6.351112-3.333334-2.76-6.622223-5.604444-9.822223-8.533333 5.066667-9.244444 9.6-18.715555 13.644445-28.488889 2.4-5.688889 4.577778-11.422222 6.577778-17.293333m127.733333 132.577778c-1.244445-5.822223-2.622222-11.595556-4.177778-17.288889-3.911111-14.395556-8.844444-28.395556-14.844444-41.866667-2.444445-5.555555-5.071111-11.062222-7.866667-16.44-8.355556-16.266667-18.222222-31.693333-29.422222-46.088889-3.333334-4.315555-6.844445-8.582222-10.444445-12.755555-3.6-4.1822226-7.377777-8.266667-11.244444-12.226667-3.822222-4-7.777778-7.8177778-11.822222-11.5066667-8.222223-7.6888889-16.888889-14.8488889-25.955556-21.4666666-4.933333-3.6488889-9.955555-7.1155556-15.066667-10.4-3.022222-1.96-6.088888-3.8666667-9.155555-5.6888889-4.711111-2.8-9.511111-5.4666667-14.4-8.0488889-11.6-6.0844445-23.688889-11.3777778-36.133333-15.9111111l-.266667-.0888889v-.04c-5.244445-1.8666667-20.133333-6.4488889-21.688889-6.8888889-5.284444-1.46666667-10.666667-2.80444444-16.044444-4.00444444-1.555556-.31111112-3.155556-.61777778-4.711112-.97333334-5.822222-1.16-11.644444-2.13333333-17.555555-2.97777778-13.511111-1.86666666-27.288889-2.84444444-41.333333-2.84444444-74.933334 0-143.511112 27.7288889-195.911112 73.5511111-3.6888884 3.2044445-25.7333329 25.2888889-26.7999996 26.5377779-15.3777777 17.2-28.7555555 36.217778-39.8222222 56.666667-.9333333 1.684444-1.8666666 3.422222-2.7111111 5.155555-1.6444444 3.195556-3.2444444 6.351111-4.7555555 9.555556-1.0666667 2.311111-2.1333334 4.622222-3.1111112 6.884444-7.3777777 16.755556-13.2888888 34.266667-17.51111107 52.448889-1.37777777 5.906667-2.57777777 11.906667-3.55555555 17.955556-2.75555556 16.133333-4.17777778 32.711111-4.17777778 49.595555 0 41.071111 8.35555556 80.226667 23.4222222 115.866667 2.2222222 5.293333 4.6666667 10.493333 7.2 15.6 11.9555556 24.266666 27.1555556 46.715555 45.0222222 66.76 3.6444445 4.133333 7.4222223 8.173333 11.2888889 12.044444 18.8444447 18.928889 40.1777777 35.333334 63.4666667 48.706667 5.244444 3.026667 10.577778 5.871111 16.044444 8.582222 39.822223 19.684445 84.622223 30.751111 131.911112 30.751111 47.288888 0 92.088888-11.066666 131.911111-30.751111 5.466666-2.711111 10.8-5.555555 16.044444-8.582222 9.511111-5.417778 18.622222-11.377778 27.422222-17.817778 4.444445-3.244444 8.844445-6.577778 13.066667-10.088889 14.444444-11.777778 27.733333-24.8 39.688889-39.066666 3.555555-4.177778 6.977778-8.493334 10.311111-12.888889 8.044444-10.711111 15.377778-21.96 21.955556-33.737778 2.755555-4.844445 5.377777-9.822222 7.822222-14.844445 12.666666-25.862222 21.693333-53.866666 26.355555-83.288888.888889-5.377778 1.6-10.844445 2.177778-16.351112 1.066667-10.177777 1.6-20.488888 1.6-30.893333 0-20.844444-2.177778-41.2-6.222222-60.844444" fill="#170a19"/><path d="m416.471111 554.217778c-35.933333 16.684444-75.955555 25.982222-118.115555 25.982222-42.164445 0-82.182223-9.297778-118.115556-25.982222l.128889-.097778c23.506667-21.528889 42.462222-48 55.186667-77.666667 19.942222 5.8 41.008888 8.902223 62.8 8.902223 21.791111 0 42.857777-3.102223 62.8-8.902223 12.76 29.737778 31.742222 56.24 55.315555 77.764445" fill="#fcb2bf"/><path d="m400.782222 344.226667c0-4.515556.097778-9.035556.328889-13.515556-7.68-10.782222-14.706667-22.12-20.902222-33.924444-3.231111-6.031111-6.2-12.195556-8.968889-18.457778-4.546667-10.222222-8.502222-20.702222-11.862222-31.484445-35.64 26.8-77.408889 45.791112-122.835556 54.426667-5.502222 1.088889-11.106666 1.977778-16.746666 2.706667-12.853334 1.711111-25.977778 2.6-39.293334 2.6-2.275555 0-4.551111-.031111-6.791111-.097778-.955555 36.293333-8.44 70.977778-21.328889 102.955556 1.813334 1.777777 3.657778 3.493333 5.537778 5.173333 19.613333 17.804444 42.626667 31.946667 67.942222 41.306667 5.142222 1.911111 10.351111 3.626666 15.657778 5.111111 18.066667 5.106666 37.155556 7.844444 56.835556 7.844444s38.768888-2.737778 56.831111-7.844444c5.306666-1.484445 10.515555-3.2 15.657777-5.111111 15.497778-5.733334 30.133334-13.253334 43.648889-22.284445-8.933333-28.217778-13.711111-58.284444-13.711111-89.404444" fill="#fcb2bf"/><path d="m463.284444 526.755556c-9.853333 7.151111-20.177777 13.68-30.951111 19.515555-23.702222-20.373333-42.764444-45.986667-55.453333-75 15.231111-5.671111 29.671111-12.924444 43.151111-21.626667 10.586667 27.924445 25.222222 53.871112 43.253333 77.111112" fill="#633a82"/><path d="m482.733333 511.364444c-16.484444-21.955555-29.768889-46.448888-39.262222-72.688888-2.013333-5.475556-3.822222-11.013334-5.44-16.617778-5.6-19.04-9.191111-38.902222-10.608889-59.364445 8.342222 8.853334 17.248889 17.177778 26.622222 24.951111.715556 1.68 1.444445 3.346667 2.182223 4.995556.191111.426667.382222.853333.577777 1.28.222223.484444.44.973333.662223 1.453333 2.488889 5.426667 5.111111 10.715556 7.911111 15.955556 11.124444 20.831111 24.631111 40.186667 40.177778 57.702222 2.964444 3.337778 6 6.608889 9.106666 9.813333-2.817778 3.386667-5.72 6.706667-8.697778 9.96-7.302222 7.951112-15.057777 15.488889-23.231111 22.56" fill="#61d4b3"/><path d="m529.595556 459.324444c-11.564445-12.715555-21.973334-26.453333-31.026667-41.106666 14.08 7.933333 28.866667 14.746666 44.262222 20.306666v.017778c-1.075555 1.857778-2.173333 3.706667-3.288889 5.546667-3.16 5.182222-6.471111 10.266667-9.946666 15.235555" fill="#ed6663"/><path d="m565.413333 208.173333c-3.395555-10.022222-7.32-19.808889-11.773333-29.271111-2.533333-5.404444-5.235556-10.715555-8.071111-15.888889-7.186667-13.053333-15.364445-25.484444-24.462222-37.155555-3.328889-4.351111-6.822223-8.604445-10.448889-12.72-2.737778-3.133334-5.542222-6.231111-8.44-9.235556-3.822222-4.0177776-7.782222-7.942222-11.871111-11.6977776-5.631111-5.3111111-11.533334-10.3511111-17.635556-15.1644444-.528889-.4311111-1.053333-.8266667-1.582222-1.2577778-2.306667 9.9244445-5.106667 19.6488889-8.373333 29.1422218-2.008889 5.871112-4.182223 11.604445-6.555556 17.275556-2.768889 6.662222-5.737778 13.186667-9.004444 19.582222-.293334.693334-.657778 1.382222-1.017778 2.044445-1.155556 2.306666-2.373334 4.613333-3.631111 6.888889 3.2 2.933333 6.462222 5.768888 9.791111 8.506666 2.64 2.173334 5.275555 4.284445 7.977778 6.36 1.844444 1.417778 3.693333 2.804445 5.573333 4.155556 2.568889 1.911111 5.146667 3.724444 7.777778 5.506666 2.275555 1.546667 4.586666 3.066667 6.924444 4.546667 4.777778 3.097778 9.693333 6 14.706667 8.804445 1.115555.626666 2.235555 1.217777 3.391111 1.844444 5.64 3.031111 11.373333 5.866667 17.24 8.537778 16.586667 7.515555 34.053333 13.448889 52.186667 17.671111-.857778-2.835556-1.777778-5.671111-2.702223-8.475556" fill="#ffa372"/><path d="m554.071111 416.782222c-24.097778-8.471111-46.711111-20.173333-67.311111-34.613333-4.52-3.097778-8.902222-6.36-13.222222-9.791111-.724445-.56-1.484445-1.151111-2.208889-1.777778-9.004445-7.186667-17.537778-14.964444-25.551111-23.24-8.733334-8.968889-16.875556-18.493333-24.293334-28.546667-5.142222-6.893333-9.955555-14.013333-14.44-21.364444-4.977777-8.111111-9.524444-16.484445-13.68-25.12-2.835555-5.937778-5.471111-12-7.911111-18.164445-2.866666-7.306666-5.466666-14.715555-7.702222-22.315555 4.217778-3.715556 8.333333-7.551111 12.333333-11.506667 3.857778-3.808889 7.608889-7.733333 11.248889-11.764444 2.084445 3.431111 4.244445 6.813333 6.471111 10.146666 1.431112 2.151112 2.888889 4.275556 4.368889 6.377778.004445.004445.004445.004445.004445.004445 0 .004444.004444.004444.004444.004444 0 .004445.004445.008889.004445.008889 2.768889 3.955556 5.64 7.848889 8.604444 11.671111.071111.093333.142222.186667.213333.28.342223.453333.715556.933333 1.084445 1.417778 2.662222 3.386667 5.44 6.742222 8.288889 10.026667.288889.333333.577778.666666.862222 1 .56.657777 1.12 1.284444 1.751111 1.946666 3.968889 4.555556 8.124445 8.986667 12.44 13.284445.56.573333 1.08 1.097777 1.546667 1.56 10.333333 10.195555 21.422222 19.657777 33.146666 28.275555 6.986667 5.142222 14.204445 9.982222 21.631112 14.502222 4.875555 2.968889 9.826666 5.804445 14.866666 8.471112 18.955556 10.124444 39.164445 18.266666 60.262222 24.102222-.093333.604444-.191111 1.208889-.288888 1.813333-2.733334 16.853333-6.946667 33.195556-12.52 48.902222-2.955556 8.324445-6.297778 16.466667-10.004445 24.408889" fill="#b52b65"/><path d="m579.551111 317.293333c-19.475555-5.768889-38.106667-13.68-55.573333-23.337777-5.177778-2.871112-10.222222-5.871112-15.168889-9.066667-21.066667-13.417778-40.217778-29.573333-56.928889-47.964445-2.968889-3.2-18.262222-22.088888-20.013333-24.595555-1.284445-1.711111-2.537778-3.462222-3.688889-5.208889-3.924445-5.635556-7.653334-11.404444-11.111111-17.337778.053333-.071111.111111-.142222.164444-.213333 6.017778-7.804445 11.617778-15.915556 16.848889-24.311111 1.515556 1.351111 3.048889 2.688889 4.595556 4.008889 2.48 2.128889 4.995555 4.195555 7.542222 6.2.351111.275555.697778.551111 1.044444.822222 1.177778.937778 2.36 1.857778 3.564445 2.777778.453333.346666.911111.693333 1.368889 1.04 2.2 1.684444 4.453333 3.333333 6.72 4.924444.422222.297778.848888.595556 1.271111.893333.488889.364445.982222.711112 1.471111 1.053334.528889.373333 1.057778.742222 1.586666 1.106666l.546667.368889.386667.271111c4.942222 3.364445 10.017778 6.626667 15.195555 9.693334 6.937778 4.124444 14.053334 8.017778 21.324445 11.582222.386666.191111.777778.386667 1.168889.573333.897777.44 1.8.871111 2.702222 1.293334 3.937778 1.866666 7.92 3.635555 11.937778 5.324444 1.324444.555556 2.648889 1.106667 3.982222 1.648889 4.271111 1.724444 8.591111 3.346667 12.96 4.875556 12.782222 4.48 25.964444 8.106666 39.48 10.835555.528889 2.253333 1.026667 4.52 1.493333 6.795556 2.12 10.302222 3.684445 20.795555 4.648889 31.462222.755556 8.413333 1.142222 16.924444 1.142222 25.528889 0 6.364444-.195555 12.693333-.662222 18.955555" fill="#ed6663"/><path d="m169.36 86.2666667c-4.813333 0-9.657778-.1333334-14.44-.36h-.031111c-7.617778-.3955556-15.066667-1.0888889-22.484445-2.08-4.711111-.6266667-9.395555-1.3511111-14.008888-2.2088889 24.982222-20.8133334 53.613333-37.3822222 84.782222-48.6.004444-.0044445 0-.0044445.004444-.0044445.084445-.0266666.16-.0577777.24-.0844444.062222-.0222222.115556-.0444445.182222-.0666667.031112-.0088889.066667-.0222222.102223-.0355555 29.591111-10.5822223 61.462222-16.3422223 94.648889-16.3422223 10.897777 0 21.64.6177778 32.2 1.8266667 3.288888.3822222 6.56.8177778 9.813333 1.3111111h.004444c.026667.0044445.053334.0088889.075556.0133334 1.142222.1733333 2.284444.3511111 3.417778.5422222 1.235555.1911111 2.471111.4 3.702222.6133333.595555.1066667 1.191111.2177778 1.786667.3333333-.524445.4622223-1.093334.9244445-1.617778 1.3555556-2.502222 2.0444444-4.977778 4.0533333-7.582222 6-.457778-.1333333-.924445-.2666667-1.417778-.3644444l.395555 1.12c-5.635555 4.32-11.502222 8.4088888-17.506666 12.2622222-43.942223 28.32-96.226667 44.7688889-152.266667 44.7688889" fill="#ffa372"/><path d="m173.546667 180.782222c-8.373334 0-16.68-.364444-24.857778-1.124444-3.626667-.293334-7.217778-.657778-10.777778-1.12-2.604444-.328889-5.177778-.688889-7.746667-1.115556-1.448888-.2-2.902222-.431111-4.351111-.728889-5.608889-.924444-11.146666-2.044444-16.648889-3.328889-4.617777-1.088888-9.164444-2.275555-13.6799996-3.595555-5.3066666-1.511111-10.5511111-3.195556-15.7288888-5.04-8.1733334-2.902222-16.1822223-6.168889-23.9955556-9.76 2.0222222-3.422222 4.1244444-6.8 6.2933333-10.128889 4.2844445-6.564444 8.8355556-12.946667 13.6355556-19.12 3.6133333-4.644444 7.3688889-9.173333 11.2577778-13.573333 1.7733333-2.053334 3.6-4.071111 5.4666666-6.062223 1.2533334-1.333333 2.5244445-2.648888 3.8088889-3.951111l.9777778.306667c.7155556.208889 1.4311111.417778 2.1466667.622222.6666663.186667 1.3377773.368889 2.0044443.546667 4.12 1.16 8.266667 2.204444 12.448889 3.142222.937778.213333 1.88.422222 2.822222.626667 4.222222.933333 8.488889 1.817778 12.8 2.533333 5.702222 1 11.475556 1.835556 17.257778 2.475556.888889.097777 1.777778.195555 2.671111.288889 2.217778.226666 4.448889.431111 6.68.613333 8.084445.666667 16.244445 1.022222 24.457778 1.022222 38.537778 0 75.391111-7.355555 109.231111-20.7288888 23.257778-9.1866666 45.093333-21.2177778 65.071111-35.6666666.56-.36 1.088889-.7555556 1.622222-1.1511112.622223-.4622222 1.213334-.8933333 1.808889-1.32 2.768889-2.0755555 5.471111-4.1511111 8.142222-6.3288888 1.186667-.9244445 2.373334-1.88 3.56-2.8355556l.791112-.6933333c1.422222-1.1511111 2.835555-2.3422223 4.217777-3.56 4.088889-3.5111111 8.048889-7.1155556 11.915556-10.8133334.137778-.1244444.266667-.2488889.386667-.36.146666.0444445.297777.0933334.448888.1422223 2.786667 1.0177777 16.542223 6.3911111 28.311112 11.5422222-1.835556 3.08-3.728889 6.0977778-5.657778 9.1155555-3 4.6177778-6.097778 9.1644445-9.391111 13.5822223-3.76 5.1733333-7.715556 10.2222222-11.835556 15.0977777-3.657778 4.3511111-7.453333 8.5688889-11.373333 12.6933334-1.253334 1.32-2.537778 2.6355555-3.822222 3.92-4.484445 4.5511113-9.102223 8.9377773-13.88 13.1244443-1.053334.951111-2.111112 1.88-3.2 2.8-5.666667 4.88-11.533334 9.528889-17.568889 13.88-46.546667 33.986667-103.844445 54.031111-165.72 54.031111" fill="#ed6663"/><path d="m180.502222 274.702222c-2.275555 0-4.551111-.035555-6.791111-.097778-5.537778-.102222-11.044444-.4-16.515555-.857777-11.835556-.96-23.44-2.671111-34.813334-5.08-5.404444-1.12-10.746666-2.404445-16.022222-3.888889-5.671111-1.515556-11.24-3.231111-16.7466667-5.111111-5.7022222-1.942223-11.3377777-4.084445-16.8755555-6.395556-16.6844445-6.888889-32.5066667-15.36-47.3422222-25.217778 1.5111111-5.893333 3.2088888-11.711111 5.0888888-17.448889 2.4088889-7.337777 5.1066667-14.546666 8.0844445-21.617777 1.3422222-3.182223 2.7422222-6.333334 4.2-9.457778 12.4266667 6.524444 25.3866667 12.164444 38.7688889 16.88 1.0977778.391111 2.1955555.773333 3.2933333 1.151111 4.0844445 1.408889 8.2088889 2.711111 12.4133333 3.906667 1.1333334.324444 2.2755556.648889 3.4177776.964444 5.217778 1.453333 10.502222 2.768889 15.853334 3.933333.906666.204445 1.813333.4 2.724444.595556 4.515556.977778 9.111111 1.808889 13.737778 2.551111 1.96.297778 19.208889 3.168889 27.324444 3.168889.346667 0 .675556-.004444.986667-.013333.017778-.004445.035555-.004445.053333-.004445 3.213334.231111 6.422222.36 9.666667.457778 3.111111.102222 6.293333.164444 9.44.164444h.04.004444.008889c17.613334 0 34.866667-1.533333 51.644445-4.475555 41.484444-7.266667 80.031111-23.137778 113.764444-45.702222 1.902222-1.266667 3.786667-2.56 5.666667-3.884445 3.666666-2.573333 7.28-5.231111 10.831111-7.977778 1.542222-1.182222 3.071111-2.386666 4.582222-3.604444 1.657778-1.328889 3.293333-2.671111 4.92-4.04.426667-.364444.848889-.724444 1.275556-1.084444 4.195555-3.555556 8.288889-7.217778 12.297777-11.017778 3.066667-2.871111 6.066667-5.835556 8.968889-8.866667 2.035556-2.093333 4.04-4.208889 6.008889-6.355555 1.311111-1.426667 2.608889-2.866667 3.884445-4.32.497777-.56.986666-1.124445 1.48-1.688889.475555-.551111.951111-1.097778 1.426666-1.653334 4.04-4.702222 7.915556-9.5422219 11.64-14.5066663.915556-1.2088889 1.822223-2.4266667 2.72-3.6533334.911111-1.2444444 1.813334-2.5022222 2.706667-3.7644444 2.168889-3.0488889 4.28-6.1511111 6.293333-9.2977778.111111-.1733333.222223-.3466667.333334-.52 4.315555-6.5866667 8.333333-13.3777778 12.093333-20.3288889 2.164444 1.2888889 4.311111 2.6088889 6.431111 3.96 1.346667.8622222 2.688889 1.7377778 4.022222 2.6222222-1.186666 4.5511112-2.471111 9.0666667-3.857777 13.5511112-1.777778 5.7377777-3.76 11.4044444-5.933334 16.9777777-3.888889 10.2177777-8.404444 20.1733337-13.484444 29.7688887-2.635556 5.075556-5.44 10.053334-8.404445 14.933334-5.404444 8.933333-11.311111 17.568888-17.635555 25.813333-3.662222 4.742222-7.448889 9.391111-11.373334 13.875555-7.515555 8.604445-15.56 16.782223-24.066666 24.395556-4.582222 4.151111-9.297778 8.111111-14.142222 11.933333-35.8 28.186667-78.524445 47.866667-125.173334 56.044445-5.702222 1.017778-11.435555 1.875555-17.24 2.502222-10.386666 1.186667-20.964444 1.782222-31.68 1.782222" fill="#b52b65"/><path d="m79.2311111 475.4c-11.84-14.617778-22.2266667-30.431111-30.9955555-47.208889-1.7288889-3.315555-3.3911112-6.666667-4.9911112-10.057778 2.9422223-2.875555 5.8222223-5.808889 8.64-8.8 15.8266667-16.782222 29.7155556-35.4 41.3244445-55.515555.4088889-.702222.8133333-1.408889 1.2133333-2.12 1.2622222-2.208889 2.4888889-4.44 3.68-6.688889 1.7422222-3.271111 3.4222218-6.577778 5.0311108-9.915556 2.191111-4.484444 4.271111-9.04 6.24-13.657777 1.351111-3.164445 2.644445-6.355556 3.884445-9.577778 1.52-3.942222 2.955555-7.924445 4.302222-11.946667 9.097778 1.968889 18.346667 3.497778 27.733333 4.604445-1.088889 30.586666-7.12 59.955555-17.306666 87.315555-2.075556 5.733333-4.382223 11.373333-6.924445 16.942222-10.777778 24.195556-24.9511109 46.613334-41.8311109 66.626667" fill="#61d4b3"/><path d="m164.382222 546.271111c-24.462222-13.288889-46.746666-30.066667-66.1644442-49.68 18.9555552-21.231111 34.8800002-45.164444 47.1422222-71.142222 21.395556 19.782222 46.648889 35.471111 74.471111 45.822222-12.693333 29.013333-31.746667 54.626667-55.448889 75z" fill="#633a82"/><path d="m259.622222 368.391111c0 2.733333-2.208889 4.946667-4.946666 4.946667-2.737778 0-4.942223-2.213334-4.942223-4.946667 0-11.804444-9.626666-21.431111-21.431111-21.431111-11.8 0-21.426666 9.626667-21.426666 21.431111 0 2.733333-2.208889 4.946667-4.946667 4.946667s-4.942222-2.213334-4.942222-4.946667c0-17.24 14.044444-31.32 31.315555-31.32 17.275556 0 31.32 14.08 31.32 31.32zm115.773334 0c0 2.733333-2.208889 4.946667-4.942223 4.946667-2.737777 0-4.946666-2.213334-4.946666-4.946667 0-11.804444-9.595556-21.431111-21.426667-21.431111-11.8 0-21.426667 9.626667-21.426667 21.431111 0 2.733333-2.208889 4.946667-4.946666 4.946667-2.737778 0-4.946667-2.213334-4.946667-4.946667 0-17.24 14.044444-31.32 31.32-31.32s31.315556 14.08 31.315556 31.32zm-55.577778 72.426667c-5.937778 7.546666-14.968889 12.493333-24.822222 13.613333-1.386667.133333-2.773334.231111-4.155556.231111-11.044444 0-21.595556-4.911111-28.222222-13.32-1.675556-2.142222-1.315556-5.24.826666-6.92 2.142223-1.715555 5.24-1.32 6.955556.822222 5.342222 6.76 14.342222 10.351112 23.506667 9.328889 7.217777-.786666 13.844444-4.382222 18.128889-9.853333 1.68-2.142222 4.777777-2.542222 6.924444-.826667 2.173333 1.68 2.537778 4.782223.857778 6.924445z" fill="#1b262c"/><path d="m206.048889 395.457778c0 3.955555-7.217778 7.151111-16.12 7.151111-8.866667 0-16.084445-3.195556-16.084445-7.151111 0-3.924445 7.217778-7.12 16.084445-7.12 8.902222 0 16.12 3.195555 16.12 7.12zm191.204444 0c0 3.955555-7.217777 7.151111-16.12 7.151111-8.866666 0-16.088889-3.195556-16.088889-7.151111 0-3.924445 7.222223-7.12 16.088889-7.12 8.902223 0 16.12 3.195555 16.12 7.12z" fill="#fff"/><path d="m31.3777778 388.84c-9.6444445-28.444444-14.8888889-58.888889-14.8888889-90.488889 0-10.017778.5244444-19.933333 1.5688889-29.68-1.04 9.755556-1.56 19.666667-1.56 29.666667 0 31.626666 5.2222222 62.062222 14.9066666 90.471111-.0088888.013333-.0177777.022222-.0266666.031111m55.0488889-97.466667c-4.12-1.36-8.1955556-2.835555-12.2088889-4.377777l-.6222222-.226667c-15.3688889-5.897778-30.12-13.048889-44.1333334-21.315556.1466667.08.2977778.155556.4488889.231111 14.0888889 8.311112 28.8888889 15.426667 44.3111111 21.288889 4 1.56 8.0888889 3.026667 12.2222222 4.355556-.0044444.017778-.0088888.031111-.0177777.044444" fill="#fffffe"/><path d="m31.4044444 388.808889c-9.6844444-28.408889-14.9066666-58.844445-14.9066666-90.471111 0-10 .52-19.911111 1.56-29.666667.3155555-2.968889.6844444-5.915555 1.0977778-8.853333 3.3644444 1.96 6.8133333 3.84 10.3066666 5.635555 14.0133334 8.266667 28.7644445 15.417778 44.1333334 21.315556l.6222222.226667c4.0133333 1.542222 8.0888889 3.017777 12.2088889 4.377777-1.5066667 4.253334-3.0977778 8.462223-4.8266667 12.582223-3.1111111 7.688888-6.6222222 15.151111-10.3555556 22.44-9.3733333 18.035555-25.3155555 43.884444-39.84 62.413333" fill="#b52b65"/></g></svg>