<svg height="600" viewBox="0 0 600 600" width="600" xmlns="http://www.w3.org/2000/svg"><g fill="none" fill-rule="evenodd"><circle cx="300" cy="300" fill="#fff" fill-rule="nonzero" r="300"/><circle cx="300" cy="300" fill="#170a19" fill-rule="nonzero" r="280"/><g transform="translate(38.760469 38.760469)"><path d="m319.832714 427.003402c11.718047 27.321211 29.086751 51.728059 50.669726 71.596497-33.24277 15.329363-70.254383 23.879163-109.262909 23.879163-38.887537 0-75.79053-8.496846-108.953711-23.735273l1.041433-.963305c21.172999-19.718538 38.227295-43.830295 49.784751-70.777082 18.544798 5.411064 38.122157 8.302472 58.360355 8.302472s39.815557-2.891408 58.360355-8.302472zm-1.652098-213.385914c3.138986 10.041447 6.814904 19.744187 11.027753 29.248658 2.560752 5.819991 5.328016 11.561502 8.343094 17.179094 5.74104 10.950176 12.266826 21.483162 19.412149 31.520479-.206512 4.171888-.289117 8.385083-.289117 12.552841 0 28.914081 4.419362 56.882258 12.721153 83.107329-12.555943 8.389214-26.144447 15.369899-40.559001 20.698351-4.791083 1.77202-9.62347 3.382947-14.53846 4.75017-16.810096 4.74604-34.528845 7.311132-52.825828 7.311132s-36.015732-2.565092-52.825827-7.311132c-4.914991-1.367223-9.747377-2.97815-14.538461-4.75017-25.772725-9.541647-48.984699-24.37044-68.272941-43.205898 11.977709-29.698891 18.91652-61.921568 19.783871-95.6643 2.106425.041306 4.212849.082611 6.319274.082611 11.800699 0 23.414084-.753058 34.804479-2.21279l1.706882-.224254c5.245411-.665023 10.449519-1.49114 15.571022-2.478349 42.211099-8.058768 81.035397-25.696357 114.159958-50.603772z" fill="#fcb2bf"/><path d="m175.754602 350.914209c0 3.677394-6.71021 6.648231-14.98641 6.648231-8.243146 0-14.953355-2.970837-14.953355-6.648231 0-3.648469 6.710209-6.619307 14.953355-6.619307 8.2762 0 14.98641 2.970838 14.98641 6.619307zm177.758574 0c0 3.677394-6.71021 6.648231-14.98641 6.648231-8.243145 0-14.957487-2.970837-14.957487-6.648231 0-3.648469 6.714342-6.619307 14.957487-6.619307 8.2762 0 14.98641 2.970838 14.98641 6.619307z" fill="#fff"/><path d="m119.309343 379.625616c19.866476 18.385225 43.326265 32.962052 69.181596 42.590441-11.66885 26.734093-29.182278 50.350822-50.930906 69.188369-22.816462-12.286103-43.595965-27.865259-61.7031194-46.101365l-.3694644.416013c17.5948416-19.707012 32.4224198-41.970854 43.8218938-66.093458zm255.249111 22.474502c9.720606 25.647349 23.116561 49.525539 39.628717 70.939574-9.221614 6.679841-18.902306 12.766691-28.981448 18.210377l-.850907-.744009c-21.272078-18.687821-38.420971-41.979198-49.901036-68.290003 14.125436-5.291277 27.548731-12.024127 40.104674-20.115939z" fill="#633a82"/><path d="m381.222452 321.098676c.925053.98173 1.857579 1.956458 2.797422 2.92415l1.654866 1.688009.834615.841701c6.197452 6.228173 12.699763 12.158887 19.464836 17.776092l-.023547-.05398c.664648 1.560477 1.34168 3.10857 2.026969 4.640149l.266788.594467.884993 1.944404c2.311817 5.040588 4.747482 9.953201 7.348277 14.820403 10.333 19.349088 22.878739 37.327599 37.319343 53.597016.052375.058971.108693.118253.168804.177833 2.57074 2.897678 5.20062 5.740412 7.888683 8.526975-8.691753 10.41386-18.182083 20.13956-28.37465 29.084524l-1.22726 1.069627-.471541-.632179c-14.662286-19.746148-26.551637-41.671956-35.175748-65.11855l-.475755-1.304149c-1.662307-4.520888-3.17457-9.087442-4.545487-13.70256l-.507486-1.732952c-5.201589-17.685405-8.537212-36.134536-9.854122-55.14098zm-287.7684392-58.157897c8.4308882 1.822496 17.0040372 3.242566 25.7051902 4.268765l.006329-.149606c-1.011421 28.410588-6.61345 55.690036-16.07539 81.103518-1.713681 4.733722-3.5969762 9.398946-5.652786 14.010168l-.779021 1.726705c-9.9538638 22.345912-23.0258109 43.059318-38.5868561 61.568047-12.8115944-15.82287-23.8078797-33.173696-32.6773482-51.73538l-.613849-1.295666.6163066-.605457c17.6276631-17.400865 32.9381084-37.178896 45.4236846-58.791254 3.0038142-5.144453 5.8028228-10.422041 8.4280571-15.780006l.7823881-1.609748c5.1628057-10.528856 9.6647722-21.479031 13.4232947-32.710086z" fill="#61d4b3"/><path d="m447.394885 372.814329.622195.350815c1.121307.628887 2.247403 1.250127 3.378228 1.863643l1.115386.601812.689613.36827c2.226332 1.186833 4.470804 2.34357 6.732905 3.469869l1.905295.9392 1.436311.696082 1.42172.678832 2.185645 1.024122.854564.393867c1.154614.529973 2.313498 1.052026 3.47663 1.566201l1.338379.587305 1.198513.518746 1.434529.611868 1.319077.554099 1.552233.641564 2.201903.890889 1.887806.746002 2.05362.793035 2.101535.791764 1.468541.541821c-3.746761 6.504572-7.765625 12.832592-12.041046 18.968517l.398229.442346c-10.70447-11.76998-20.343022-24.482887-28.731811-38.040669zm-59.784858-235.030213c3.216427 2.891408 6.4961 5.687942 9.836249 8.36193l1.435188 1.138411c.483238.384144.961429.759568 1.437784 1.130862l2.8618 2.21491c2.808567 2.185079 5.74104 4.332982 8.673514 6.361098.949956.702199 1.899912 1.363092 2.849868 2.019855l.867352.578282c4.584571 3.143373 9.29305 6.154568 14.125436 9.008801 6.814903 4.047971 13.795017 7.848107 20.899037 11.313667 5.699738 2.76749 11.440778 5.291276 17.305725 7.682884 15.29022 6.165262 31.297312 11.016152 47.825736 14.396224 4.417745 19.03441 6.751346 38.86893 6.751346 59.248491 0 5.228105-.153577 10.42034-.456465 15.57244l-.121164 1.928636-.838283-.250786c-17.559592-5.318029-34.369037-12.510368-50.154557-21.238596-4.275028-2.37053-8.452201-4.835654-12.554715-7.438861l-1.534988-.98276c-19.176528-12.213911-36.644241-26.870119-51.944653-43.529564l-1.276805-1.400475-.561305-.639955c-4.114379-4.748846-16.193245-19.691727-17.68543-21.827748-1.193063-1.589375-2.357228-3.215904-3.426444-4.838305-3.602561-5.173326-7.027707-10.467617-10.207696-15.910766l1.115131-1.451384 1.273264-1.686075.798461-1.068801 1.050937-1.426492 1.017957-1.400804 1.103967-1.540839.734166-1.037505 1.092255-1.562601 1.017772-1.477117 1.14507-1.686699c.514316-.763724 1.025195-1.530351 1.53248-2.299722l.678942-1.034596c.531123-.813264 1.058195-1.629419 1.581326-2.448541l.788616-1.241785zm-43.951485-124.5167939c8.61403 2.8616375 17.028948 6.1595753 25.218552 9.8676138l1.633707.7465205-.931324 1.5490795c-1.380485 2.2720544-2.792676 4.5145176-4.226003 6.7569807-2.786566 4.2892475-5.663953 8.512443-8.722983 12.6159194-3.492496 4.8052782-7.166635 9.4949655-10.993519 14.0236513-3.397546 4.0415527-6.923068 7.959258-10.564181 11.7902702-.77611.8173927-1.565064 1.6329506-2.358299 2.4393346l-1.191993 1.2017783c-4.1654 4.2273237-8.454647 8.3019024-12.892511 12.19071-.652263.5889631-1.306361 1.1687523-1.969632 1.7430372l-1.002705.8577577c-4.824888 4.1550795-9.805874 8.1297776-14.920702 11.8763977l-1.398254 1.016114c-43.235119 31.568696-96.456465 50.187085-153.929904 50.187085-7.777616 0-15.493307-.338516-23.08928-1.044446-3.368648-.272464-6.704271-.61098-10.010996-1.040318-2.419152-.30549-4.809406-.639878-7.195532-1.03619-1.345809-.185771-2.695745-.400439-4.041553-.677032-5.2098464-.858675-10.3536408-1.898993-15.4644092-3.092056-3.6764978-.866932-7.3044677-1.800589-10.907307-2.82177l-1.7994338-.517981c-4.9291256-1.403604-9.8004557-2.968209-14.6098622-4.681431-7.4821762-2.656803-14.8159883-5.642413-21.9737731-8.921262 10.5610732-17.842537 23.1884914-34.3149594 37.5492536-49.0940985l.6715946.2118614c1.2803758.3758831 2.5607516.7476355 3.8411274 1.0780822 4.1199189 1.1529489 8.2398378 2.1857237 12.4150955 3.1176946l1.7929456.3933009c3.3631991.7435049 6.7567429 1.453628 10.1806316 2.0601372l1.714473.294295c6.112761 1.069821 12.308128 1.9372434 18.503495 2.5609614 9.540865.9872094 19.205637 1.5283157 28.953014 1.5283157 60.425477 0 116.39029-19.4591761 161.98819-52.4212279l.566168-.3931627.212545-.1540772.975214-.7264797 4.779804-3.6788925 3.217771-2.4943896 3.314984-2.5893396.860127-.6855955 1.352387-1.1721893 4.779926-4.1901245 3.623763-3.2038333 2.677128-2.3907905 1.842321-1.6668881 1.437947-1.3267312z" fill="#ed6663"/><path d="m357.170124 178.0573c3.180289 5.24171 6.567089 10.363632 10.077797 15.361638 2.602054 3.676219 5.245411 7.315262 8.012674 10.863433l.583397.769837c.20135.263841.407862.533362.614374.803915 2.336539 2.970479 4.764111 5.916681 7.256707 8.804789l1.356594 1.557767 2.667794 2.932832 2.709903 2.944211c3.098278 3.350181 6.802279 7.298869 9.138372 9.613719 15.323207 15.122065 32.422419 28.501023 50.884612 39.740339 4.543269 2.76336 9.169143 5.411063 13.836319 7.885283 16.914112 9.036124 34.853947 16.358768 53.600901 21.716514l1.490424.421142c-3.71941 24.061367-10.722194 47.038405-20.536185 68.458947l-.559163 1.210227-.758771-.268772c-21.891264-7.829369-42.447976-18.534794-61.207211-31.684472-4.198426-2.877387-8.268876-5.907519-12.281531-9.094525-.672904-.520159-1.378834-1.069216-2.051738-1.651299-8.363827-6.675373-16.290059-13.899803-23.733286-21.586597-7.725717-7.934096-14.953424-16.336246-21.576136-25.185055l-.988856-1.330668c-4.77638-6.40291-9.247271-13.01636-13.412671-19.844478-4.623635-7.534049-8.846831-15.311664-12.706741-23.332846-2.63382-5.515337-5.08187-11.146264-7.348277-16.872141-2.635801-6.718228-5.02889-13.529496-7.091172-20.513889 7.753257-6.814456 15.127239-14.085884 22.02187-21.719851zm-355.0771197 47.006034c2.71907763 1.752055 5.46683752 3.452478 8.2432797 5.091708l1.6693071.976118c12.6252724 7.448326 25.8650241 13.863474 39.6451882 19.197297l1.5333495.588195c3.1625301 1.233488 6.3848516 2.40419 9.6415298 3.486668l1.6306605.533716-.574126 1.606201c-1.2196259 3.375509-2.5020781 6.716355-3.8785532 9.996542-2.8897721 7.141865-6.1510864 14.07319-9.6188129 20.843513-8.6367192 16.618211-23.2776129 40.378058-36.6810965 57.558008-8.88819968-26.275589-13.7037305-54.426315-13.7037305-83.701769 0-12.194357.8355159-24.193569 2.45242388-35.943512zm393.5770047-187.8664439c2.720215 1.6356995 5.408194 3.3195378 8.062761 5.0503363l1.586405 1.0427736-.439142 1.6634481c-.943858 3.5136915-1.951265 7.0049261-3.024609 10.4760928-1.46782 4.7373915-3.085685 9.4225938-4.844895 14.0411099l-.666313 1.7287894c-3.399732 8.9325527-7.31508 17.649351-11.69786 26.0746765l-.827238 1.5763143c-2.44805 4.714457-5.052973 9.338092-7.806513 13.870906-5.019947 8.297774-10.506385 16.318956-16.380879 23.976852-3.401675 4.404839-6.91894 8.722984-10.564182 12.888384-6.980863 7.992284-14.452988 15.588256-22.354451 22.659941-4.256221 3.855782-8.63629 7.534049-13.136078 11.084341-33.253021 26.181335-72.937849 44.461208-116.267917 52.05718-5.29654.945368-10.621977 1.74212-16.013466 2.324203-9.647711 1.102241-19.472936 1.655426-29.426137 1.655426-1.585246 0-3.170492-.018577-4.741806-.052248l-1.566153-.038573c-5.143795-.09495-10.258691-.371542-15.340562-.796752-10.993519-.891701-21.772369-2.481075-32.33655-4.718585-5.0199469-1.040318-9.9820985-2.233381-14.8823263-3.612215-5.2676418-1.407732-10.4403339-3.001235-15.5552305-4.747483-5.2965395-1.804043-10.5311552-3.793858-15.6749496-5.940545-15.3652847-6.344218-29.9432901-14.133133-43.62135706-23.189711 3.99477506-15.639656 9.40765936-30.711032 16.08772896-45.07382l-.2962918-.154445c11.5646847 6.067827 23.5836962 11.313667 36.0570346 15.692085 4.7910836 1.734845 9.6234697 3.304466 14.5797631 4.712995 5.8649472 1.689409 11.8538017 3.217724 17.9252611 4.543641 4.4423075 1.024385 8.9825165 1.892113 13.5626125 2.652503l4.872432.776931 2.527064.385277c6.111639.913426 15.47692 2.174179 20.369741 2.058318l.259713-.007601c.331006-.014057.661515-.021046.99169-.022244l.439178.002189.244397.016458c1.132212.068674 2.264845.125487 3.399926.174044 1.31471.097331 2.634491.204187 3.970044.238481 2.891171.086742 5.864947.165223 8.797421.165223 56.832164 0 109.699294-17.179094 153.727701-46.634281 5.204108-3.46969 10.325611-7.183084 15.323207-11.028657 3.015078-2.308995 5.947552-4.667558 8.838723-7.100472 4.295454-3.634913 8.508304-7.356568 12.597246-11.239316 2.849868-2.684879 5.658435-5.448239 8.343094-8.2611656 3.634615-3.7175246 7.186625-7.5589667 10.573425-11.4788899 4.765667-5.4561823 9.284986-11.1164986 13.590441-16.9582069l1.071927-1.464193c3.015079-4.0934077 5.947553-8.3066023 8.673514-12.6024085 3.659988-5.6187305 7.113156-11.3443264 10.328015-17.2366236z" fill="#b52b65"/><path d="m421.878974 55.212372c41.908036 32.7222269 73.574848 77.951941 89.388022 130.076727l.639207.155418c-16.843243-3.921834-33.067249-9.433042-48.473863-16.413906-1.800445-.819748-3.587371-1.656171-5.362116-2.51031-2.935478-1.418496-5.833486-2.886156-8.694366-4.401132l-1.712076-.914648c-1.073864-.582412-2.147728-1.115257-3.180289-1.734844-4.667176-2.606398-9.210445-5.287147-13.671109-8.182685-2.147727-1.358962-4.295454-2.767491-6.401879-4.209064-2.478147-1.656364-4.873688-3.345772-7.227928-5.121923-1.776005-1.239175-3.469405-2.519656-5.204108-3.845573-2.519449-1.937243-4.956293-3.919923-7.393138-5.902603-3.097683-2.565092-6.154064-5.208665-9.12784-7.930719 4.414199-8.054637 8.392786-16.294423 11.969794-24.7772199l.710057-1.6998166c2.230332-5.2871461 4.254152-10.6155981 6.112762-16.0720981 2.815885-8.2516075 5.307543-16.6905623 7.34039-25.2731219zm-160.639443-55.212372c16.051036 0 31.763971 1.44758153 47.015376 4.21931454l-.275129.23354068-.962183.78973869-.745342.58409834c-4.21121 3.26050595-18.237063 13.66674355-23.318566 16.92778255-40.815967 26.3051827-89.380652 41.5838207-141.433704 41.5838207-3.832192 0-7.685614-.0909899-11.505674-.2495723l-1.935895-.0848156c-7.075813-.3674139-13.994753-1.0114202-20.884795-1.9320191-4.251503-.5655301-8.4796251-1.2167896-12.6465064-1.9840666 45.2320434-37.5281868 103.3276884-60.0878219 166.6924184-60.0878219z" fill="#fabf55"/><path d="m408.398804 45.3613054c4.602771 3.1436709 9.099844 6.4307056 13.484791 9.8546747-2.082059 9.0067917-4.676408 17.8577443-7.626647 26.5030553-1.652176 4.8504526-3.434895 9.5997265-5.377165 14.3087466l-.735887 1.7641147c-3.758701 9.0835833-7.97175 17.8862733-12.680453 26.4782933 2.973918 2.722184 6.030444 5.365882 9.128274 7.931096 2.43696 1.982774 4.87392 3.965548 7.393489 5.902883 1.734785 1.32598 3.428266 2.606522 5.204355 3.845756 2.354351 1.776235 4.750007 3.465723 7.228271 5.122166 2.106525 1.441641 4.254354 2.850237 6.402183 4.209263 4.460876 2.895676 9.00436 5.576552 13.671758 8.183074.826088.495693 1.678611.935869 2.536421 1.390321l.644019.344606c5.204355 2.804799 10.532623 5.452628 15.984805 7.931096 15.447848 6.976885 31.680479 12.512129 48.532677 16.4405l-.903136-.217337c1.657621 5.469119 3.140723 11.014103 4.442825 16.628472-16.527954-3.377158-32.531241-8.227312-47.818012-14.391184-5.865226-2.391721-11.606539-4.915627-17.306547-7.683249-7.104357-3.465724-14.084802-7.26604-20.900029-11.314204-4.295658-2.537216-8.49341-5.198458-12.593254-7.966318l-1.532853-1.042911-.867392-.578309c-.950002-.656794-1.900003-1.317718-2.850004-2.019951-2.513668-1.738468-5.027337-3.564946-7.462972-5.42741l-3.359299-2.594563c-.713017-.552491-1.426551-1.109114-2.151443-1.685358-3.83718-3.015468-7.595881-6.196168-11.271973-9.500791-6.071747 9.748638-12.680452 19.080068-19.908723 27.961243 3.428265 5.952453 7.145662 11.77272 11.06958 17.394711 1.073915 1.606873 2.230438 3.259184 3.428266 4.833011.920498 1.343093 1.894945 2.647071 2.884806 3.941992l2.23694 2.91097.536958.706364c1.610872 2.065389 3.263048 4.130779 4.997833 6.196168 2.560873 3.052646 5.204355 6.15073 7.934576 9.129022 15.526326 17.060117 33.328525 32.096153 52.906814 44.571106 4.626093 2.97003 9.293491 5.737652 14.126107 8.422658 16.632251 9.186749 34.363923 16.681038 52.965315 22.100002l.51799.149377c-.488027 5.170813-1.12677 10.297758-1.911789 15.376397l-.009262-.002275c-19.280272-5.392421-37.71671-12.860659-55.073129-22.13308-4.667398-2.474336-9.293491-5.122166-13.836976-7.885657-18.463069-11.239849-35.563093-24.619443-50.887028-39.742225l-1.154349-1.16221c-4.804498-4.899797-12.972845-13.877304-13.467411-14.448004-2.932612-3.345931-5.782616-6.778608-8.508707-10.244332l-.911924-1.194892c-.097453-.128506-.192969-.255011-.285904-.378935-2.767395-3.548339-5.410877-7.187555-8.013055-10.863948-3.510874-4.998243-6.897836-10.120409-10.078275-15.362368-8.095663 8.963791-16.852198 17.427757-26.104384 25.23906 2.313046 8.013712 4.956528 15.858061 8.013054 23.54131 2.271743 5.741783 4.708703 11.405081 7.352185 16.899017 3.841309 8.050888 8.095663 15.820884 12.721757 23.334771 4.171745 6.861224 8.63262 13.466339 13.423932 19.873178 6.540928 8.907274 13.766809 17.404295 21.451322 25.379689l1.100883 1.135781c7.434793 7.728688 15.406544 14.957551 23.750034 21.608105.66087.578309 1.363045 1.156619 2.06522 1.648181 4.006527 3.1807 8.095664 6.241607 12.267409 9.129022 18.833999 13.161796 39.486281 23.905633 61.462536 31.791656l.427602.151494c-2.313771 4.633977-4.761218 9.189549-7.337289 13.661662-19.447194-7.108631-37.847029-16.364885-54.965894-27.470692 10.586499 18.952194 23.465627 36.402197 38.250696 52.079307l.355475.374487c-3.065431 4.144556-6.250535 8.195233-9.550208 12.146927-17.776683-18.42742-33.00298-39.3065-45.164681-62.080946-2.602177-4.870188-5.039137-9.785815-7.352184-14.829497-1.073915-2.350413-2.147829-4.746265-3.180439-7.183424-12.308713-10.203025-23.750034-21.442874-34.076135-33.624542.566214 22.650439 4.023325 44.587995 10.022345 65.463654l.386365 1.331043c1.486959 5.200651 3.180439 10.326948 5.039138 15.407806 9.3761 25.937162 22.758727 49.982426 39.363098 71.375731l-.56032-.72756c-3.953331 3.227485-8.002952 6.341484-12.143894 9.337027-16.514689-21.417818-29.908808-45.29394-39.628468-70.938792-12.556539 8.092196-25.980471 14.825366-40.106578 20.116894 11.48061 26.312055 28.630317 49.604537 49.903405 68.293246l.841663.735604c-4.812163 2.598918-9.715147 5.05123-14.702968 7.350951-21.580667-19.868653-38.946923-44.273604-50.66386-71.592228-18.545678 5.41132-38.123967 8.302866-58.363126 8.302866-20.239158 0-39.817447-2.891546-58.363125-8.302866-11.558006 26.948066-28.613111 51.060967-49.787115 70.780442l-1.032142.954214c-4.995797-2.295464-9.906728-4.743916-14.726794-7.339355 21.745615-18.836387 39.256549-42.451318 50.924291-69.182874-25.856558-9.628846-49.317461-24.206365-69.18488-42.592463-11.196444 23.692969-25.6998094 45.592881-42.8840002 65.038371l-.5624044.63273c-3.604383-3.630096-7.1028742-7.365473-10.490454-11.201111 17.2628244-19.643265 31.5878388-41.837993 42.3716246-65.990732 2.313047-5.167605 4.460876-10.409564 6.443488-15.742399 9.74784-26.313063 15.406543-54.567591 16.150023-84.061354-12.55654-.987256-24.865253-2.767622-36.884835-5.365882-3.5707659 10.670009-7.8125219 21.086512-12.6544412 31.129094l-.7694907 1.582546c-2.850004 5.911144-5.9065301 11.731412-9.2108826 17.390579-12.721757 22.021183-28.3761269 42.138077-46.4261523 59.776504l.3919364-.387777c-2.3345717-4.956103-4.5179179-9.997484-6.5440891-15.118196 17.6597103-18.098041 32.7126389-38.778912 44.5143892-61.397623l.6291228-1.213567c3.5108745-6.729039 6.7739225-13.710055 9.665231-20.856303 1.9826114-4.750396 3.8000053-9.670154 5.4521815-14.585781-3.056526-.867463-6.0304432-1.734927-9.0456649-2.680875-1.6521762-.499825-3.3043524-1.032695-4.9152243-1.615135-3.2925512-1.05866-6.5547563-2.2114-9.7606044-3.432208l-1.5981072-.615955c-13.8207493-5.253909-27.1038037-11.590977-39.775093-18.963055l-1.4053998-.823377c-2.78804737-1.614446-5.54741116-3.292001-8.27809133-5.023104l-1.26346297-.805541c.76494428-5.55953 1.70482194-11.063257 2.81389991-16.505448 14.55925139 9.887521 30.08541799 18.308468 46.54510179 25.101715 5.1217463 2.152136 10.3674059 4.130779 15.6543699 5.952453 4.5526634 1.542157 9.1705979 2.983136 13.8247943 4.273616l1.7469667.47678c4.3008213 1.192762 8.6332662 2.259019 13.0250056 3.198772l1.885885.395005c10.5739277 2.271929 21.3543777 3.837494 32.3413497 4.750396 5.080442.413078 10.202188.702233 15.323935.784848 2.106524.037177 4.213049.078485 6.319574.078485 9.368811 0 18.627858-.472024 27.742706-1.457397l1.707335-.190784c5.410878-.578309 10.739146-1.363157 16.02611-2.313236 43.369626-7.600634 83.06316-25.899985 116.313207-52.093254 4.50218-3.55247 8.880447-7.228864 13.176106-11.111796 7.889141-7.063632 15.365239-14.660135 22.345683-22.673846 3.634788-4.130779 7.186967-8.468097 10.573928-12.892162 5.502521-7.164319 10.671058-14.688066 15.447752-22.445302l.950097-1.554524c2.767395-4.498418 5.369573-9.129021 7.806533-13.875287 4.708702-8.881174 8.921752-18.1382503 12.515235-27.6349113 2.023916-5.2089123 3.882614-10.4550017 5.53479-15.7795759 2.519569-8.1830733 4.708703-16.4818083 6.443488-24.9953439zm-90.215904 168.2535046c-33.126134 24.908598-71.952275 42.547024-114.165378 50.606174-4.481528.863849-9.026304 1.604356-13.606656 2.22152l-1.965105.256947c-11.936974 1.606873-24.121773 2.43716-36.513095 2.43716-2.106525 0-4.21305-.041308-6.319574-.082616-.867393 33.744334-7.806533 65.968542-19.784811 95.668843 19.289158 18.836352 42.502234 33.665849 68.276183 43.207949 4.791311 1.772104 9.623927 3.383108 14.539151 4.750395 16.810893 4.746266 34.530484 7.311479 52.828335 7.311479 18.297852 0 36.017443-2.565213 52.828336-7.311479 4.915224-1.367287 9.74784-2.978291 14.539151-4.750395 14.415237-5.328705 28.004387-12.309722 40.560926-20.699334-8.302185-26.226316-12.721757-54.195821-12.721757-83.111274 0-4.167956.082609-8.381351.289131-12.553438-7.145662-10.037793-13.671758-20.571279-19.413071-31.521975-3.015221-5.617859-5.782617-11.359642-8.34349-17.17991-4.213049-9.504922-7.889141-19.208122-11.028276-29.250046zm-121.814954 83.863076c16.055022 0 29.107215 13.086308 29.107215 29.1096 0 2.540429-2.052829 4.597557-4.597181 4.597557-2.544351 0-4.59305-2.057128-4.59305-4.597557 0-10.971349-8.946534-19.918617-19.916984-19.918617-10.96632 0-19.912854 8.947268-19.912854 19.918617 0 2.540429-2.052829 4.597557-4.597181 4.597557-2.544351 0-4.59305-2.057128-4.59305-4.597557 0-16.023292 13.052193-29.1096 29.103085-29.1096zm107.597977 0c16.055023 0 29.103085 13.086308 29.103085 29.1096 0 2.540429-2.052829 4.597557-4.59305 4.597557-2.477395 0-4.488796-1.950283-4.592944-4.39803l-.004237-.199527c0-10.971349-8.917621-19.918617-19.912854-19.918617-10.966319 0-19.912854 8.947268-19.912854 19.918617 0 2.540429-2.052829 4.597557-4.59718 4.597557-2.544352 0-4.597181-2.057128-4.597181-4.597557 0-16.023292 13.052193-29.1096 29.107215-29.1096zm78.371216-267.7751732c4.524271 2.3711344 8.97047 4.8709878 13.333733 7.4946959-3.401004 6.3245259-7.076333 12.4514958-10.987878 18.456411-2.423192 3.8186758-5.009562 7.572075-7.672081 11.2340871l-1.001845 1.3689198c-4.626093 6.3613997-9.500013 12.5121297-14.663064 18.4232745-3.386961 3.9201093-6.93914 7.7617338-10.573928 11.4794349-2.684786 2.813061-5.493486 5.576552-8.34349 8.261558-4.089136 3.882932-8.302185 7.604764-12.597844 11.23985-2.891308 2.433029-5.823921 4.791703-8.839142 7.100809-4.997834 3.845755-10.11958 7.559326-15.323935 11.02918-44.030497 29.456585-96.900137 46.636495-153.734999 46.636495-2.932613 0-5.90653-.078485-8.797839-.165231-3.056526-.078485-6.030443-.537001-9.045665-.408947-7.063053.247847-24.410903-2.643699-26.310906-2.932853-5.163051-.826156-10.2847972-1.780366-15.2826303-2.932853-6.0717477-1.32598-12.0608866-2.854369-17.9261122-4.543857-4.9565287-1.408596-9.7891442-2.978292-14.5804553-4.713219-11.9315858-4.188251-23.4474728-9.170173-34.5476611-14.906002l-1.2031076-.626734c2.1575206-4.638875 4.447228-9.203833 6.8642822-13.690035 10.8201119 5.682069 22.0458879 10.590446 33.6777976 14.682429 4.8326155 1.69775 9.665231 3.267446 14.6217597 4.66778 4.171745 1.243365 8.4260988 2.358675 12.721757 3.345931 5.1217464 1.197926 10.243493 2.234752 15.447848 3.098084 1.363045.293286 2.726091.499825 4.047832.665056 2.395655.413078 4.791311.739409 7.186966 1.069872 2.676526.330462 5.326616.60805 8.013716.853914l2.023255.17878c7.600011.702233 15.323935 1.032695 23.089163 1.032695 56.961667 0 109.71316-18.255032 152.723765-49.282027l1.300365-.944115c5.617399-4.048164 11.069581-8.344174 16.31524-12.892162 1.03261-.863332 2.023916-1.693619 2.973917-2.59826 4.456746-3.8829319 8.756534-7.9765339 12.928279-12.1899285 1.156524-1.1979259 2.354352-2.4330289 3.552179-3.6309548 3.634788-3.8457553 7.145663-7.7658646 10.532624-11.814028 3.84131-4.543857 7.517402-9.215768 11.028276-14.0487795 3.056526-4.0853405 5.947835-8.2987351 8.71523-12.5988761 3.417001-5.2535999 6.629186-10.6471683 9.667589-16.1776017zm-101.716466 357.7641942c2.019786 1.561435 2.358482 4.444718.797175 6.435754-5.518268 7.014063-13.911324 11.61162-23.068511 12.652576-1.288697.123924-2.577395.214801-3.861962.214801-10.264144 0-20.06981-4.564511-26.228297-12.379945-1.557176-1.991036-1.222611-4.870189.768262-6.431623 1.990872-1.594481 4.869789-1.226841 6.464139.764194 4.96479 6.282915 13.328932 9.620584 21.8459 8.670505 6.707836-.731148 12.866323-4.072948 16.848068-9.157937 1.561306-1.991035 4.440223-2.362805 6.435226-.768325zm45.942111-379.23279613c5.77355 1.48576906 11.473247 3.16556443 17.088344 5.03074853l-1.044589.9687676c-1.418394 1.3024656-3.282962 2.9732329-5.204311 4.6791724l-.550166.4880806c-4.316465 3.8262868-8.731595 7.6698335-8.880018 7.796003l-.583035.4704851c-2.259432 1.7946057-9.582733 7.4568999-11.522342 8.9343214l-.451162.3397012c-.495653.3717701-.991306.7435402-1.486959 1.0740026-45.600064 32.9636166-101.567534 52.4237167-161.99588 52.4237167-9.74784 0-19.413071-.5411321-28.954389-1.5283883-5.576095-.5613728-11.152189-1.3201556-16.668062-2.246235l-1.836312-.314848c-3.434166-.5700475-6.8379862-1.2554196-10.2114603-1.985881l-1.6842082-.368663c-4.7913111-1.0326948-9.5000134-2.1934437-14.2087157-3.5111622-.8536244-.2203082-1.7072488-.4589754-2.5608731-.7049863l-1.2804366-.373147-.6586193-.2066107c4.1312112-4.2513957 8.4058588-8.3626654 12.8161322-12.3259985 10.0404273 2.5716713 20.359596 4.5766246 30.881678 5.9646705 6.897836.9129022 13.836976 1.569696 20.941334 1.9455969 4.460876.2024082 8.921752.3263316 13.423932.3263316 51.564007 0 99.727489-14.9756846 140.282295-40.8468174l1.648123-1.0592456c2.312224-1.5069824 6.096634-4.2012711 9.990969-7.0386081l1.170236-.8544483c5.723956-4.1880726 11.391337-8.4592267 12.704262-9.5188676 1.569568-1.2805415 3.139135-2.59826 4.708703-3.92424 1.177175-.991387 2.307883-2.0060096 3.4444-3.02469844z" fill="#170a19" fill-rule="nonzero"/></g></g></svg>